<svg width="20" height="21" viewBox="0 0 20 21" fill="none" xmlns="http://www.w3.org/2000/svg">
<g id="WhatsApp">
<path id="Fill 1" fill-rule="evenodd" clip-rule="evenodd" d="M14.5773 12.0387C14.3286 11.9142 13.1057 11.3125 12.8777 11.2295C12.6497 11.1464 12.4839 11.105 12.318 11.3539C12.1522 11.6029 11.6756 12.1632 11.5304 12.3293C11.3853 12.4952 11.2402 12.516 10.9915 12.3915C10.7428 12.267 9.94128 12.0043 8.99121 11.1568C8.25173 10.4973 7.75254 9.68282 7.60744 9.43375C7.46238 9.18477 7.59202 9.05017 7.71655 8.92611C7.82844 8.81465 7.96529 8.63556 8.08963 8.49036C8.21402 8.34511 8.25546 8.24129 8.33837 8.07542C8.42128 7.90936 8.37985 7.7641 8.31765 7.63962C8.25546 7.51513 7.75799 6.29074 7.55073 5.79265C7.34882 5.30773 7.14376 5.37341 6.99107 5.36568C6.84615 5.35847 6.68013 5.35695 6.51436 5.35695C6.34854 5.35695 6.07904 5.41919 5.85107 5.66816C5.62305 5.91723 4.98047 6.519 4.98047 7.74329C4.98047 8.96764 5.87178 10.1504 5.99617 10.3164C6.12052 10.4824 7.75011 12.9948 10.2453 14.0723C10.8388 14.3285 11.3021 14.4816 11.6633 14.5962C12.2592 14.7856 12.8015 14.7589 13.23 14.6948C13.7079 14.6234 14.7017 14.0931 14.909 13.5121C15.1162 12.931 15.1162 12.433 15.054 12.3293C14.9919 12.2255 14.8261 12.1632 14.5773 12.0387ZM10.0389 18.2356H10.0356C8.5509 18.235 7.09467 17.8362 5.82427 17.0823L5.52217 16.903L2.39057 17.7244L3.22642 14.6712L3.02971 14.3581C2.20145 13.0408 1.76403 11.5182 1.76465 9.95479C1.76646 5.39279 5.47825 1.68129 10.0422 1.68129C12.2522 1.68205 14.3297 2.54386 15.8919 4.10783C17.4541 5.67174 18.3139 7.75064 18.313 9.96143C18.3112 14.5238 14.5994 18.2356 10.0389 18.2356ZM17.0804 2.91944C15.201 1.03777 12.7015 0.00106156 10.0384 1.14441e-05C4.55141 1.14441e-05 0.0856325 4.46545 0.0834368 9.95414C0.0827208 11.7087 0.541098 13.4213 1.41227 14.931L0 20.0895L5.27723 18.7052C6.73127 19.4982 8.36835 19.9163 10.0345 19.9169H10.0385H10.0386C15.525 19.9169 19.9912 15.4509 19.9934 9.96211C19.9944 7.30221 18.9599 4.80106 17.0804 2.91944Z" fill="black"/>
</g>
</svg>
