<?xml version="1.0" encoding="UTF-8"?>
<svg width="24px" height="24px" viewBox="0 0 24 24" version="1.1" xmlns="http://www.w3.org/2000/svg" xmlns:xlink="http://www.w3.org/1999/xlink">
    <title>icons/product/O-W/mdpi/ic_Plazza</title>
    <g id="icons/product/O-W/ic_Plazza" stroke="none" stroke-width="1" fill="none" fill-rule="evenodd">
        <path d="M15.476952,3.00175196 C13.090056,3.00175196 11.154312,4.34661597 11.154312,6.00871198 C11.154312,7.00058398 11.846736,7.88263198 12.91368,8.42791199 C12.826584,8.85323999 12.621456,9.47642399 12.155496,9.65116799 C12.155496,9.65116799 13.383552,9.33086399 14.080776,8.85323999 C14.5383303,8.96095747 15.0068901,9.01492231 15.476952,9.01403999 C17.86428,9.01403999 19.8,7.66831198 19.8,6.00707998 C19.8,4.34584797 17.86428,2.99999996 15.476952,2.99999996 M9.69345599,8.99431199 C9.69309805,10.3157195 8.62175947,11.3867284 7.30035195,11.3866798 C5.97894443,11.3866311 4.90768473,10.3155432 4.90742406,8.99413575 C4.90716348,7.67272826 5.97800058,6.60121789 7.29940798,6.60064798 L7.30043998,6.60064798 C8.62212712,6.60111175 9.69335007,7.67262477 9.69345599,8.99431199 M9.42767999,13.421496 C8.89612799,13.820184 8.89612799,17.013288 9.16190399,18.608544 C9.42767999,20.2038 8.89612799,21.00324 8.49710399,21.00324 C8.09807998,21.00324 6.50301598,19.408488 6.50301598,19.408488 C5.83893597,21.672 4.50959997,20.605584 4.50959997,20.605584 C4.03199997,18.992784 4.22481597,17.191272 4.58260797,15.69684 C4.40935197,15.63924 4.26439197,15.500328 4.21607997,15.242088 C4.10039997,14.62476 5.30383197,13.014072 5.69915997,12.504768 L5.70585597,12.4914 C6.23735998,11.5608 7.75641598,12.1128 8.49719999,11.694024 C9.12599999,11.33856 12.086448,9.56522399 12.219072,10.629144 C12.351696,11.693064 9.95920799,13.021272 9.42767999,13.421496 Z" fill="#000000"></path>
    </g>
</svg>