<svg width="40" height="40" viewBox="0 0 40 40" fill="none" xmlns="http://www.w3.org/2000/svg">
<circle cx="20" cy="20" r="20" fill="white"/>
<path fill-rule="evenodd" clip-rule="evenodd" d="M24.5773 22.0387C24.3286 21.9142 23.1057 21.3125 22.8777 21.2295C22.6497 21.1464 22.4839 21.105 22.318 21.3539C22.1522 21.6029 21.6756 22.1632 21.5304 22.3293C21.3853 22.4952 21.2402 22.516 20.9915 22.3915C20.7428 22.267 19.9413 22.0043 18.9912 21.1568C18.2517 20.4973 17.7525 19.6828 17.6074 19.4337C17.4624 19.1848 17.592 19.0502 17.7166 18.9261C17.8284 18.8147 17.9653 18.6356 18.0896 18.4904C18.214 18.3451 18.2555 18.2413 18.3384 18.0754C18.4213 17.9094 18.3798 17.7641 18.3177 17.6396C18.2555 17.5151 17.758 16.2907 17.5507 15.7926C17.3488 15.3077 17.1438 15.3734 16.9911 15.3657C16.8461 15.3585 16.6801 15.3569 16.5144 15.3569C16.3485 15.3569 16.079 15.4192 15.8511 15.6682C15.623 15.9172 14.9805 16.519 14.9805 17.7433C14.9805 18.9676 15.8718 20.1504 15.9962 20.3164C16.1205 20.4824 17.7501 22.9948 20.2453 24.0723C20.8388 24.3285 21.3021 24.4816 21.6633 24.5962C22.2592 24.7856 22.8015 24.7589 23.23 24.6948C23.7079 24.6234 24.7017 24.0931 24.909 23.5121C25.1162 22.931 25.1162 22.433 25.054 22.3293C24.9919 22.2255 24.8261 22.1632 24.5773 22.0387ZM20.0389 28.2356H20.0356C18.5509 28.235 17.0947 27.8362 15.8243 27.0823L15.5222 26.903L12.3906 27.7244L13.2264 24.6712L13.0297 24.3581C12.2015 23.0408 11.764 21.5182 11.7646 19.9548C11.7665 15.3928 15.4783 11.6813 20.0422 11.6813C22.2522 11.682 24.3297 12.5439 25.8919 14.1078C27.4541 15.6717 28.3139 17.7506 28.313 19.9614C28.3112 24.5238 24.5994 28.2356 20.0389 28.2356ZM27.0804 12.9194C25.201 11.0378 22.7015 10.0011 20.0384 10C14.5514 10 10.0856 14.4655 10.0834 19.9541C10.0827 21.7087 10.5411 23.4213 11.4123 24.931L10 30.0895L15.2772 28.7052C16.7313 29.4982 18.3684 29.9163 20.0345 29.9169H20.0385H20.0386C25.525 29.9169 29.9912 25.4509 29.9934 19.9621C29.9944 17.3022 28.9599 14.8011 27.0804 12.9194Z" fill="black"/>
</svg>
