<svg width="40" height="40" viewBox="0 0 40 40" fill="none" xmlns="http://www.w3.org/2000/svg">
<g id="07 Social Buttons">
<circle id="Oval" cx="20" cy="20" r="20" fill="black"/>
<path id="Fill 1" fill-rule="evenodd" clip-rule="evenodd" d="M28.125 16.6911L22.219 22.375H22.214C21.6352 22.95 20.8505 23.2487 19.9858 23.2487C19.1215 23.2487 18.3368 22.95 17.7568 22.375H17.7414L11.875 16.6949V14.5315C14.2241 16.8536 18.4997 21 18.4997 21H18.501C18.8836 21.4 19.4044 21.5699 19.979 21.5699C20.5877 21.5699 21.1355 21.325 21.523 20.9H21.5257L28.125 14.5013V16.6911ZM27.7874 12H10V25.425C10 26.6452 10.989 27.625 12.2092 27.625H30C30 27.625 30 14.1886 30 14.1574C30 12.9374 29.0081 12 27.7874 12Z" fill="white"/>
</g>
</svg>
