<svg width="40" height="40" viewBox="0 0 40 40" fill="none" xmlns="http://www.w3.org/2000/svg">
<g id="07 Social Buttons">
<circle id="Oval" cx="20" cy="20" r="20" fill="black"/>
<path id="Fill 1" fill-rule="evenodd" clip-rule="evenodd" d="M29.0329 28H25.2964V22.1535C25.2964 20.7587 25.2726 18.965 23.3551 18.965C21.4102 18.965 21.1142 20.4851 21.1142 22.0534V28H17.3819V15.9767H20.9637V17.6206H21.0148C21.5131 16.6751 22.7322 15.6785 24.5504 15.6785C28.3337 15.6785 29.0329 18.1679 29.0329 21.4061V28ZM13.1681 14.3341C11.9679 14.3341 11 13.3635 11 12.1667C11 10.9707 11.9679 10 13.1681 10C14.3635 10 15.3341 10.9707 15.3341 12.1667C15.3341 13.3635 14.3635 14.3341 13.1681 14.3341ZM11.2967 28H15.0374V15.9767H11.2967V28Z" fill="white"/>
</g>
</svg>
